HIERARCHY
ROOT Hips
{
   OFFSET 0.00000 0.00000 0.00000
   CHANNELS 6 Xposition Yposition Zposition Zrotation Xrotation Yrotation
   JOINT RightUpLeg
   {
      OFFSET -7.156640 -6.933656 0.081322
      CHANNELS 3 Zrotation Xrotation Yrotation
      JOINT RightLeg
      {
         OFFSET 0.000000 -35.538158 1.098160
         CHANNELS 3 Zrotation Xrotation Yrotation
         JOINT RightFoot
         {
            OFFSET 0.202839 -33.673920 -1.168472
            CHANNELS 3 Zrotation Xrotation Yrotation
            JOINT RightToes
            {
               OFFSET 0.032000 -3.532072 6.799280
               CHANNELS 3 Zrotation Xrotation Yrotation
               End Site
               {
                  OFFSET -0.064000 -0.109958 7.823832
               }
            }
         }
      }
   }
   JOINT Spine
   {
      OFFSET 0.000000 9.512400 0.000000
      CHANNELS 3 Zrotation Xrotation Yrotation
      JOINT Spine1
      {
         OFFSET 0.000000 20.525920 0.102130
         CHANNELS 3 Zrotation Xrotation Yrotation
         JOINT HEad
         {
            OFFSET 0.000000 6.987328 0.009073
            CHANNELS 3 Zrotation Xrotation Yrotation
            End Site
            {
               OFFSET -0.232000 10.219360 2.011160
            }
         }
         JOINT LeftShoulder1
         {
            OFFSET 7.192000 -0.289802 -0.176000
            CHANNELS 3 Zrotation Xrotation Yrotation
            JOINT LeftArm
            {
               OFFSET 8.226160 -0.002704 0.257698
               CHANNELS 3 Zrotation Xrotation Yrotation
               JOINT LeftForeArm
               {
                  OFFSET 26.213519 0.079315 -1.139472
                  CHANNELS 3 Zrotation Xrotation Yrotation
                  JOINT LeftHand
                  {
                     OFFSET 22.051441 0.068290 0.817728
                     CHANNELS 3 Zrotation Xrotation Yrotation
                     End Site
                     {
                        OFFSET 13.395442 -0.480000 1.202328
                     }
                  }
               }
            }
         }
         JOINT RightShoulder
         {
            OFFSET -7.192000 -0.289802 -0.176000
            CHANNELS 3 Zrotation Xrotation Yrotation
            JOINT RightArm
            {
               OFFSET -8.226160 -0.002704 0.257698
               CHANNELS 3 Zrotation Xrotation Yrotation
               JOINT RightForeArm
               {
                  OFFSET -26.317679 0.079315 -1.139472
                  CHANNELS 3 Zrotation Xrotation Yrotation
                  JOINT RightHand
                  {
                     OFFSET -21.993682 0.068290 0.817728
                     CHANNELS 3 Zrotation Xrotation Yrotation
                     End Site
                     {
                        OFFSET -13.304962 -0.480000 1.202328
                     }
                  }
               }
            }
         }
      }
   }
   JOINT LeftUpLeg
   {
      OFFSET 7.156640 -6.933656 0.081322
      CHANNELS 3 Zrotation Xrotation Yrotation
      JOINT LeftLeg
      {
         OFFSET 0.000000 -35.538158 1.098160
         CHANNELS 3 Zrotation Xrotation Yrotation
         JOINT LeftFoot
         {
            OFFSET -0.202839 -33.673920 -1.168472
            CHANNELS 3 Zrotation Xrotation Yrotation
            JOINT LeftToes
            {
               OFFSET -0.032000 -3.532072 6.799280
               CHANNELS 3 Zrotation Xrotation Yrotation
               End Site
               {
                  OFFSET 0.064000 -0.037958 7.823832
               }
            }
         }
      }
   }
}
MOTION
Frames: 12
Frame Time: 0.016667
-328.867030 78.700341 -12.735650 -23.529098 -5.996500 -136.877715 -52.360828 -4.118316 -112.064369 -37.177860 -5.440669 18.400354 -25.819802 39.613536 70.390072 -54.273380 -28.814861 3.284011 -21.096916 6.886138 145.155481 15.762296 -24.851046 -142.033538 5.605044 -2.691676 -1.318349 14.389634 80.819101 9.256418 203.018357 -6.705995 -163.871592 -6.362951 50.822649 -47.839690 -27.445765 -57.623827 -80.822783 -35.759691 63.867542 63.396901 95.468518 130.541813 199.204530 13.045987 180.226521 67.642403 14.896035 6.159535 49.629773 5.533670 -20.816190 -139.504947 -6.341395 -22.504471 122.731109 -46.173264 2.582570 83.272977 -14.851741 5.707656 -7.613003
-330.215106 79.317044 -12.094689 -23.868494 -5.460455 -136.450965 -52.225505 -3.609372 -111.718228 -37.408864 -5.365741 18.488767 -25.919706 39.989248 70.329980 -54.272868 -28.825577 3.353267 -21.936507 6.042414 145.470899 15.688352 -24.769379 -141.987530 4.253377 -2.815234 -1.313146 13.862719 80.184433 9.450051 203.062699 -4.531567 -163.951915 -7.587507 50.370941 -47.007059 -26.223570 -58.638076 -80.131096 -34.765550 63.303389 63.907280 94.906066 130.192312 199.221701 13.739600 178.664648 69.630739 14.473123 5.489769 51.928490 5.330690 -20.222358 -137.094724 -6.476574 -23.251024 121.295868 -45.368534 2.950548 82.983848 -14.868519 6.082437 -7.379774
-331.514506 79.876279 -11.519035 -23.922341 -5.327492 -136.030252 -51.678393 -3.635335 -111.155065 -37.544402 -5.628923 18.211122 -26.013506 40.479143 70.075630 -54.242996 -28.827097 3.415858 -22.533469 6.737456 145.852215 16.446021 -25.211359 -141.673505 3.893659 -3.911087 -1.563657 14.468076 79.532410 9.516742 203.737194 -3.637325 -165.900077 -8.083166 51.087298 -44.837941 -25.473300 -58.708215 -78.195469 -34.743987 63.823521 64.002035 95.495819 128.572314 198.534160 13.081323 177.023750 68.470959 13.936086 4.587664 52.490134 5.232327 -19.680092 -135.213635 -6.243222 -23.703034 120.113303 -44.983336 3.419318 82.701051 -14.915547 6.506826 -7.025297
-332.673945 80.362786 -10.992311 -24.227337 -4.474898 -134.398589 -50.600801 -2.326353 -110.439781 -37.807604 -5.569373 17.487282 -26.314682 41.438198 69.446987 -54.120005 -28.870062 3.354037 -22.036226 7.298891 147.773506 17.577668 -24.357988 -140.400576 4.069231 -4.899866 -1.982516 14.699547 77.634341 7.373252 207.489659 -3.184646 -168.262530 -10.407489 51.451976 -44.097894 -24.178322 -59.305433 -76.527058 -35.873957 65.877851 64.073274 95.885925 125.854445 196.811477 11.696040 176.144199 67.522396 13.236265 3.063150 52.083676 5.464123 -18.629302 -133.606136 -6.152374 -24.151014 119.098801 -44.985583 4.008037 82.339057 -14.948964 6.831370 -6.627661
-333.692088 80.772790 -10.518881 -25.164225 -2.829494 -133.305007 -49.635869 -0.748417 -109.065950 -38.283026 -4.868911 16.828203 -26.569380 42.197612 68.770572 -54.101092 -29.152982 3.427685 -20.207931 6.315908 149.771855 18.771718 -21.278874 -140.138898 5.031545 -7.407834 -2.591800 12.805410 77.284656 5.412482 -147.782167 -4.219953 -169.092384 -13.750013 52.697696 -44.911444 -23.052828 -59.823844 -74.469272 -34.363303 70.009255 65.856493 99.192652 123.873499 196.503313 12.003764 173.652246 69.041260 13.136647 2.388574 55.570713 5.688878 -16.297017 -132.116936 -5.842657 -24.073406 118.566674 -44.824752 4.265220 82.192686 -15.037105 6.833634 -6.114058
-334.809489 81.293277 -10.150491 -24.156429 -2.616152 -131.886404 -48.174810 -0.794887 -108.629159 -38.156415 -3.522357 15.872671 -27.227625 43.522870 67.670161 -53.946986 -29.375926 3.390094 -20.575760 6.486004 152.377026 17.504911 -20.478347 -139.630541 6.283587 -9.778956 -3.317369 12.117943 74.764781 3.156629 -143.647238 -6.639566 -171.182777 -13.598316 53.543864 -42.770996 -22.735840 -59.803941 -71.067326 -36.128624 71.025949 65.279383 100.837040 120.492296 194.257888 10.568209 170.192523 67.141565 12.754355 1.308648 56.267399 6.515729 -15.467247 -130.672256 -4.169168 -23.954259 117.882535 -44.267436 3.478236 81.406778 -15.020373 6.309691 -6.158797
-336.252398 81.861409 -9.905917 -22.700617 -3.594126 -130.637545 -47.317751 -1.431982 -108.359770 -37.522529 -2.108304 15.051905 -28.149718 45.129990 66.504596 -53.791561 -29.429181 3.560583 -21.375724 6.022028 155.091453 14.419673 -19.466884 -140.318996 7.793134 -10.984398 -4.173233 9.645208 72.680016 0.663379 -140.649018 -9.706506 -171.821714 -14.640056 54.786569 -42.620326 -23.562986 -58.579882 -70.357908 -37.890468 69.710202 62.746229 104.504018 117.340000 194.302257 7.541902 162.661884 61.579148 12.225415 0.282826 51.972187 6.508887 -16.159941 -129.619464 -3.433824 -23.804290 117.660336 -44.009945 3.100080 81.080950 -15.089353 5.989901 -6.063673
-337.937121 82.567443 -9.559157 -21.515275 -4.291939 -132.046176 -46.399285 -3.063767 -108.517738 -35.959809 -2.471042 15.040452 -28.404161 45.912525 65.666586 -53.943871 -29.451332 4.274186 -23.441832 5.341785 155.134619 14.478317 -22.193142 -139.938418 8.258519 -13.113841 -4.864327 10.621755 67.601224 -0.635932 -139.840473 -12.038511 -174.393977 -12.963276 54.034624 -40.415892 -23.155540 -58.459651 -68.393969 -39.170944 71.630195 62.098919 105.456775 113.713402 189.752736 6.757151 156.844585 60.366154 11.225262 -1.552875 49.325437 6.501033 -16.876158 -128.981661 -3.687771 -24.042150 117.796543 -44.243667 3.570469 81.207254 -15.220788 6.304770 -5.796037
-339.438128 83.672665 -9.241720 -21.382877 -5.823581 -133.171928 -46.956806 -4.653300 -108.990900 -34.958585 -3.178503 16.265327 -28.123910 46.387114 64.660848 -54.201629 -29.292824 5.271981 -25.260700 3.328046 156.031929 13.125201 -23.282803 -139.964633 8.807430 -14.357493 -5.707911 9.382823 64.211913 0.421680 -139.316543 -15.767751 -175.254144 -12.251720 53.805751 -40.700687 -23.964173 -55.126505 -71.087052 -36.808603 71.721071 58.936931 107.468273 107.534731 187.170119 5.024738 149.601784 58.578380 6.144974 0.577886 48.435945 4.773403 -18.089534 -127.666249 -3.988401 -24.324797 116.549337 -43.045082 4.598567 81.891168 -15.443587 7.180514 -5.159683
-340.552287 84.617356 -8.726430 -21.233607 -7.054267 -134.788784 -47.151507 -6.445512 -110.500160 -33.327334 -4.759366 18.826330 -27.473418 46.517908 63.616478 -54.617881 -28.958195 6.687381 -28.208270 2.229181 157.421421 12.526323 -22.644947 -139.771475 7.664048 -12.447861 -6.388332 7.276493 58.695333 4.249066 -138.028615 -17.572566 -177.074580 -12.160920 51.876455 -43.879635 -24.940104 -51.423617 -75.632044 -29.766248 69.397208 54.428097 108.400074 100.338341 185.881085 4.699961 141.042628 60.078979 -1.133834 3.313209 50.743712 3.020850 -18.971216 -127.037680 -5.011440 -24.073338 113.422053 -41.196091 4.995556 81.791467 -15.743687 7.870982 -4.665890
-341.151690 85.672463 -8.227019 -21.369647 -8.593472 -135.657707 -47.222705 -7.479207 -112.603749 -30.949103 -7.305364 22.694135 -26.391433 46.357027 62.683440 -55.226960 -28.862337 8.361874 -27.215421 8.658937 159.500845 13.857708 -18.760213 -140.989571 5.168420 -10.179504 -6.868510 2.154628 57.948315 8.766088 -137.786936 -21.673100 -173.468254 -17.320520 50.441391 -52.263125 -26.288394 -48.297623 -82.023865 -18.845808 67.795344 48.504991 109.781706 91.155657 185.824025 3.790972 131.915623 62.392248 -7.760311 8.211282 52.504655 2.117374 -21.147517 -124.332365 -6.263293 -25.975110 109.352114 -38.789430 4.606400 81.654488 -16.084506 7.764015 -4.513806
-341.310649 85.750044 -7.529111 -23.533152 -7.876225 -136.815710 -47.276899 -7.671332 -114.320865 -30.495920 -8.944613 28.781922 -25.472610 45.860947 60.797392 -55.863270 -29.355303 9.938629 -22.778706 6.741807 157.042441 14.199437 -19.442231 -142.178106 4.469794 -7.962255 -7.544563 -2.473480 53.230215 13.019534 -134.799944 -28.173659 -172.166884 -12.539911 48.966418 -55.054286 -31.431274 -45.571989 -84.955696 -4.803475 68.163423 42.279728 108.775926 77.694023 182.159588 -0.867936 124.265197 62.063614 -8.110751 15.164504 44.004187 -0.118357 -20.095088 -120.899444 -8.520502 -26.219114 101.918143 -37.241292 4.689432 81.430478 -16.319576 7.828406 -4.827821
